<svg width="200" height="200" viewBox="0 0 200 200" fill="none" xmlns="http://www.w3.org/2000/svg">
  <circle cx="100" cy="100" r="100" fill="#001233" />
  <path
    d="M46.8093 136V119.68H62.7453C66.3293 119.68 69.4333 119.04 72.0573 117.76C74.6813 116.416 76.6973 114.4 78.1053 111.712C79.5133 109.024 80.2173 105.696 80.2173 101.728C80.2173 97.76 79.4813 94.464 78.0093 91.84C76.6013 89.216 74.5853 87.264 71.9613 85.984C69.4013 84.64 66.3293 83.968 62.7453 83.968H45.8493V67.648H62.7453C68.1213 67.648 73.0493 68.448 77.5293 70.048C82.0733 71.648 86.0093 73.952 89.3373 76.96C92.6653 79.968 95.2253 83.584 97.0173 87.808C98.8733 91.968 99.8013 96.64 99.8013 101.824C99.8013 107.008 98.8733 111.712 97.0173 115.936C95.2253 120.096 92.6653 123.68 89.3373 126.688C86.0093 129.696 82.1053 132 77.6252 133.6C73.1453 135.2 68.2493 136 62.9373 136H46.8093ZM33.9453 136V67.648H53.1453V136H33.9453ZM141.425 137.152C136.177 137.152 131.281 136.288 126.737 134.56C122.257 132.768 118.321 130.272 114.929 127.072C111.537 123.872 108.881 120.128 106.961 115.84C105.105 111.488 104.177 106.784 104.177 101.728C104.177 96.608 105.105 91.904 106.961 87.616C108.881 83.328 111.505 79.616 114.833 76.48C118.225 73.344 122.161 70.912 126.641 69.184C131.121 67.392 135.985 66.496 141.233 66.496C146.545 66.496 151.409 67.328 155.825 68.992C160.241 70.656 164.081 72.96 167.345 75.904L154.577 88.768C153.041 87.104 151.153 85.792 148.913 84.832C146.737 83.872 144.177 83.392 141.233 83.392C138.673 83.392 136.305 83.808 134.129 84.64C132.017 85.472 130.193 86.688 128.657 88.288C127.121 89.888 125.905 91.84 125.009 94.144C124.177 96.384 123.761 98.912 123.761 101.728C123.761 104.608 124.177 107.2 125.009 109.504C125.905 111.744 127.121 113.664 128.657 115.264C130.193 116.864 132.017 118.112 134.129 119.008C136.305 119.84 138.673 120.256 141.233 120.256C144.113 120.256 146.673 119.808 148.913 118.912C151.217 118.016 153.201 116.704 154.865 114.976L167.729 127.84C164.337 130.784 160.529 133.088 156.305 134.752C152.081 136.352 147.121 137.152 141.425 137.152Z"
    fill="white" />
</svg>